# xmcd
#
# Track frame offsets:
#	150
#	22800
#	41113
#
# Disc length: 808 seconds
#
# Revision: 0
# Processed by: cddbd v1.5.2PL0 Copyright (c) Steve Scherf et al.
# Submitted via: audiograbber 1.83.01
#
DISCID=1a032603
DTITLE=Grup Vardiya - UMUT DIMDIK AYAKTA
DYEAR=1900
DGENRE=
TTITLE0=Umut Dimdik Ayakta
TTITLE1=Yasemin
TTITLE2=Egilme Borana
EXTD=
EXTT0=
EXTT1=
EXTT2=
PLAYORDER=
